<svg xmlns="http://www.w3.org/2000/svg" fill="none" viewBox="0 0 500 200"><defs/><g clip-path="url(#clip0)"><path fill="url(#paint0_linear)" d="M0 0h500v200H0V0z"/><path fill="#fff" fill-opacity=".07" d="M556 58c0 120.4-101.18 218-226 218S104 178.4 104 58s101.18-218 226-218S556-62.4 556 58z"/><path fill="#fff" fill-opacity=".07" d="M579 58c0 132.55-111.48 240-249 240C192.48 298 81 190.55 81 58s111.48-240 249-240c137.52 0 249 107.45 249 240z"/><path fill="#fff" fill-opacity=".07" d="M192-4c0 112.67-91.33 204-204 204S-216 108.67-216-4s91.33-204 204-204S192-116.67 192-4z"/><path fill="#fff" fill-opacity=".07" d="M172-24c0 112.67-91.33 204-204 204S-236 88.67-236-24s91.33-204 204-204 204 91.33 204 204zM539 172c0 39.76-33.58 72-75 72s-75-32.24-75-72 33.58-72 75-72 75 32.24 75 72z"/><path fill="#fff" fill-opacity=".07" d="M559 172c0 50.26-42.53 91-95 91s-95-40.74-95-91 42.53-91 95-91 95 40.74 95 91z"/><path fill="#fff" fill-opacity=".07" d="M547 51c0 54.68-46.12 99-103 99s-103-44.32-103-99 46.12-99 103-99S547-3.68 547 51z"/><path fill="#fff" fill-opacity=".07" d="M565 51c0 64.06-54.17 116-121 116S323 115.06 323 51 377.17-65 444-65 565-13.06 565 51z"/><path fill="#fff" d="M231.35 72.23L250 61.46l3.06 1.77L234.4 74v18l9.59 5.54V81.4l6 3.39 9 4.95V73.66l3.59 2.07v14.54l-15.6 9h.01l-3.06 1.77-3 1.73-.04.03 2.7 1.5 6.4 3.7 21.65-12.5v-25l-9.59-5.54-3 1.74 9.6 5.53v21.54L250 104.54l-3.06-1.77L265.6 92V74L256 68.46v16.17l-6-3.33-9-5.05v16.09l-3.59-2.07V75.73l15.6-9H253l3.06-1.77 3-1.73.04-.03-2.7-1.5L250 58l-21.65 12.5v25l9.59 5.53 3-1.73-9.6-5.53V72.23zM176.82 124.08V138h-1.68v-17.04h1.3l11.27 14.18v-14.16h1.68V138h-1.46l-11.11-13.92zM194.3 123.12l-1.08-.4 1.41-2.24h1.73l-2.06 2.64zm-.96 14.88v-12.5h1.63V138h-1.63zM197.7 131.71c0-.88.15-1.71.46-2.5a6.05 6.05 0 015.8-3.94c1.19.01 2.22.28 3.1.83a5.09 5.09 0 012 2.16l-1.59.5a3.7 3.7 0 00-1.49-1.49 4.28 4.28 0 00-5.33.89 4.93 4.93 0 00-1.3 3.55 5.5 5.5 0 001.35 3.63 4.22 4.22 0 004.4 1.3 4.22 4.22 0 001.97-1.15c.23-.27.4-.54.5-.83l1.6.48c-.17.45-.43.87-.76 1.25a5.64 5.64 0 01-2.72 1.61 6.22 6.22 0 01-4.22-.26 6.36 6.36 0 01-3.31-3.5 6.9 6.9 0 01-.46-2.53zM216.95 138.24c-.91 0-1.75-.17-2.5-.5a6.44 6.44 0 01-1.97-1.42 6.78 6.78 0 01-1.73-4.54c0-.88.16-1.7.46-2.5a6.44 6.44 0 013.26-3.48 5.76 5.76 0 012.48-.52 6.08 6.08 0 014.44 1.94c.56.6.99 1.28 1.3 2.07a6.78 6.78 0 01.02 4.97 6.27 6.27 0 01-3.27 3.48c-.75.33-1.58.5-2.5.5zm-4.54-6.43a5.31 5.31 0 001.32 3.55 4.22 4.22 0 004.97 1.06 4.9 4.9 0 002.45-2.7 5.31 5.31 0 000-3.9 4.94 4.94 0 00-2.45-2.7 3.86 3.86 0 00-1.75-.4c-.63 0-1.21.14-1.75.4-.55.26-1.03.62-1.44 1.09a5.31 5.31 0 00-1.34 3.6zM225.97 120.48h1.63v14.69c0 .46.13.83.38 1.1.26.26.62.39 1.08.39a4.12 4.12 0 001.3-.26l.29 1.31c-.3.13-.68.23-1.13.31-.43.08-.81.12-1.13.12-.75 0-1.34-.2-1.78-.62a2.43 2.43 0 01-.64-1.8v-15.24zM235.58 138.24c-.6 0-1.15-.1-1.66-.29a3.87 3.87 0 01-2.18-2.06c-.21-.48-.31-1-.31-1.54s.12-1.05.38-1.51c.25-.46.62-.86 1.08-1.2a5.1 5.1 0 011.66-.77c.63-.19 1.34-.29 2.1-.29.65 0 1.3.06 1.95.17.66.11 1.24.27 1.75.48v-1.13c0-1.1-.3-1.97-.93-2.61a3.4 3.4 0 00-2.6-.99c-.63 0-1.3.13-1.96.39a9.5 9.5 0 00-2.04 1.1l-.58-1.08a8.44 8.44 0 014.7-1.63c1.57 0 2.8.44 3.7 1.32.9.88 1.35 2.1 1.35 3.65v5.64c0 .45.2.67.6.67V138a3.9 3.9 0 01-.63.07c-.42 0-.74-.1-.98-.31a1.2 1.2 0 01-.36-.86l-.05-.99a5.65 5.65 0 01-2.19 1.73c-.86.4-1.8.6-2.8.6zm.38-1.25c.85 0 1.63-.16 2.33-.48a3.81 3.81 0 001.63-1.27c.15-.14.25-.3.31-.46.08-.17.12-.33.12-.48v-2.04a9.93 9.93 0 00-3.48-.64c-1.15 0-2.09.24-2.8.72a2.19 2.19 0 00-1.08 1.9 2.71 2.71 0 00.83 1.96 3.2 3.2 0 002.14.8zM249.66 138.24a8.7 8.7 0 01-2.85-.48 6.86 6.86 0 01-2.4-1.4l.74-1.1c.7.58 1.42 1.01 2.14 1.3a6.4 6.4 0 002.35.43c1 0 1.8-.2 2.4-.6a2 2 0 00.91-1.75c0-.35-.08-.64-.24-.86a2 2 0 00-.72-.63c-.3-.17-.7-.33-1.18-.45-.46-.15-1-.3-1.63-.44-.72-.17-1.34-.35-1.87-.52a6 6 0 01-1.32-.6c-.34-.23-.6-.5-.77-.82a2.9 2.9 0 01-.24-1.25c0-.62.12-1.17.36-1.65.26-.48.6-.88 1.01-1.18a4.6 4.6 0 011.49-.72 6.79 6.79 0 011.82-.24c.96 0 1.84.16 2.62.48.78.3 1.41.71 1.9 1.22l-.8.96a4.38 4.38 0 00-1.7-1.08 5.96 5.96 0 00-3.27-.21c-.36.08-.7.21-.98.4a2.08 2.08 0 00-.89 1.78c0 .34.06.61.17.82.11.2.3.39.55.55.26.14.58.28.96.4.4.12.88.24 1.44.37.8.19 1.5.38 2.12.57.6.2 1.1.42 1.5.68.42.25.73.56.94.93.21.37.31.82.31 1.35 0 1.15-.44 2.06-1.31 2.73-.88.67-2.07 1.01-3.56 1.01zM261.68 135.86c.36.24.8.45 1.35.63.56.17 1.18.26 1.87.26.86 0 1.55-.15 2.06-.45.53-.32.93-.79 1.2-1.4.27-.6.45-1.35.53-2.23.08-.9.12-1.91.12-3.05v-8.66h1.68v8.66c0 1.3-.06 2.48-.2 3.56a7.73 7.73 0 01-.74 2.7 4.13 4.13 0 01-1.68 1.76c-.73.42-1.72.62-2.97.62a6.36 6.36 0 01-3.7-1.05l.48-1.35zM278.13 138.24c-1.36 0-2.37-.45-3.04-1.34-.66-.92-.99-2.27-.99-4.06v-7.34h1.63v7.05c0 2.83.97 4.25 2.9 4.25a4.32 4.32 0 002.7-.94c.4-.3.75-.66 1.05-1.08.32-.41.58-.88.77-1.41v-7.87h1.63v10.39c0 .45.2.67.58.67V138c-.2.03-.35.05-.48.05h-.24a1.3 1.3 0 01-.94-.41c-.24-.26-.36-.6-.36-1.03v-1.44a5.88 5.88 0 01-5.2 3.07zM292.62 138.24a8.7 8.7 0 01-2.85-.48 6.86 6.86 0 01-2.4-1.4l.74-1.1c.7.58 1.42 1.01 2.14 1.3a6.4 6.4 0 002.35.43c1 0 1.8-.2 2.4-.6a2 2 0 00.91-1.75c0-.35-.08-.64-.24-.86a2 2 0 00-.72-.63c-.3-.17-.7-.33-1.17-.45-.47-.15-1.01-.3-1.64-.44-.72-.17-1.34-.35-1.87-.52a6 6 0 01-1.32-.6c-.33-.23-.59-.5-.77-.82a2.9 2.9 0 01-.24-1.25c0-.62.12-1.17.36-1.65.26-.48.6-.88 1.01-1.18a4.6 4.6 0 011.49-.72 6.79 6.79 0 011.82-.24c.96 0 1.84.16 2.62.48.78.3 1.42.71 1.9 1.22l-.8.96a4.38 4.38 0 00-1.7-1.08 5.96 5.96 0 00-3.26-.21c-.37.08-.7.21-.99.4a2.08 2.08 0 00-.89 1.78c0 .34.06.61.17.82.11.2.3.39.55.55.26.14.58.28.96.4.4.12.88.24 1.44.37.8.19 1.5.38 2.12.57.6.2 1.1.42 1.5.68.42.25.74.56.94.93.21.37.32.82.32 1.35 0 1.15-.44 2.06-1.32 2.73-.88.67-2.07 1.01-3.56 1.01zM306.17 137.4a7.45 7.45 0 01-1.06.43c-.24.08-.51.15-.81.22-.3.06-.63.1-.97.1-.35 0-.68-.05-1-.15-.32-.1-.6-.24-.84-.43a2.31 2.31 0 01-.8-1.83v-8.95h-1.72v-1.3h1.72v-4.22h1.64v4.23h2.88v1.3h-2.88v8.49c.03.46.19.8.48 1.03.3.2.64.31 1.03.31.46 0 .87-.07 1.22-.21.36-.16.58-.28.68-.34l.43 1.32zM308.2 138v-12.5h1.64V138h-1.63zm0-15.12v-2.4h1.64v2.4h-1.63zM323.94 138h-1.63v-6.98c0-1.5-.22-2.57-.67-3.24-.43-.68-1.1-1.01-2.01-1.01-.49 0-.96.09-1.44.26a5.04 5.04 0 00-3.13 3.31V138h-1.63v-12.5h1.5v2.83a6.09 6.09 0 015.3-3.05c.68 0 1.27.13 1.75.38.48.26.86.62 1.15 1.08.29.47.5 1.04.62 1.7.13.68.2 1.42.2 2.24V138z"/></g><defs><linearGradient id="paint0_linear" x1="0" x2="500" y1="0" y2="200" gradientUnits="userSpaceOnUse"><stop stop-color="#219653"/><stop offset="1" stop-color="#2F80ED"/></linearGradient><clipPath id="clip0"><path fill="#fff" d="M0 0h500v200H0z"/></clipPath></defs></svg>