<svg width="500" height="200" viewBox="0 0 500 200" fill="none" xmlns="http://www.w3.org/2000/svg">
  <metadata>Created by Nícolas Justin</metadata>
  <g clip-path="url(#clip0)">
    <path d="M0 0H500V200C500 200 423.971 200 375 200C326.029 200 298.816 200 250 200C201.575 200 126 200 126 200H0V0Z" fill="url(#paint0_linear)"/>
    <path d="M556 58C556 178.398 454.816 276 330 276C205.184 276 104 178.398 104 58C104 -62.3981 205.184 -160 330 -160C454.816 -160 556 -62.3981 556 58Z" fill="white" fill-opacity="0.07"/>
    <path d="M579 58C579 190.548 467.519 298 330 298C192.481 298 81 190.548 81 58C81 -74.5483 192.481 -182 330 -182C467.519 -182 579 -74.5483 579 58Z" fill="white" fill-opacity="0.07"/>
    <path d="M192 -4C192 108.666 100.666 200 -12 200C-124.666 200 -216 108.666 -216 -4C-216 -116.666 -124.666 -208 -12 -208C100.666 -208 192 -116.666 192 -4Z" fill="white" fill-opacity="0.07"/>
    <path d="M172 -24C172 88.6661 80.6661 180 -32 180C-144.666 180 -236 88.6661 -236 -24C-236 -136.666 -144.666 -228 -32 -228C80.6661 -228 172 -136.666 172 -24Z" fill="white" fill-opacity="0.07"/>
    <path d="M539 172C539 211.765 505.421 244 464 244C422.579 244 389 211.765 389 172C389 132.235 422.579 100 464 100C505.421 100 539 132.235 539 172Z" fill="white" fill-opacity="0.07"/>
    <path d="M559 172C559 222.258 516.467 263 464 263C411.533 263 369 222.258 369 172C369 121.742 411.533 81 464 81C516.467 81 559 121.742 559 172Z" fill="white" fill-opacity="0.07"/>
    <path d="M547 51C547 105.676 500.885 150 444 150C387.115 150 341 105.676 341 51C341 -3.67619 387.115 -48 444 -48C500.885 -48 547 -3.67619 547 51Z" fill="white" fill-opacity="0.07"/>
    <path d="M565 51C565 115.065 510.826 167 444 167C377.174 167 323 115.065 323 51C323 -13.065 377.174 -65 444 -65C510.826 -65 565 -13.065 565 51Z" fill="white" fill-opacity="0.07"/>
    <path d="M231.349 72.2321L250 61.4641L253.059 63.2303L234.412 74V92L243.999 97.5354L244 81.4078L250 84.8L259 89.7523V73.6603L262.588 75.732V90.268L246.999 99.2675L247.002 99.2693L243.943 101.039L243.937 101.035L240.937 102.767L240.947 102.773L240.9 102.8L243.598 104.304L250 108L271.651 95.5V70.5L262.063 64.9646L259.063 66.6966L268.651 72.2321V93.768L250 104.536L246.941 102.77L265.588 92V74L256.001 68.4646L256 84.6333L250 81.3L241 76.2477V92.3397L237.412 90.268V75.732L253.001 66.7325L252.998 66.7307L256.057 64.9609L256.063 64.9646L259.063 63.2325L259.053 63.227L259.1 63.2L256.402 61.6961L250 58L228.349 70.5V95.5L237.937 101.035L240.937 99.3034L231.349 93.7679V72.2321Z" fill="white"/>
    <path d="M176.816 124.08V138H175.136V120.96H176.432L187.712 135.144V120.984H189.392V138H187.928L176.816 124.08Z" fill="white"/>
    <path d="M194.299 123.12L193.219 122.712L194.635 120.48H196.363L194.299 123.12ZM193.339 138V125.496H194.971V138H193.339Z" fill="white"/>
    <path d="M197.702 131.712C197.702 130.832 197.854 130 198.158 129.216C198.462 128.432 198.886 127.752 199.43 127.176C199.99 126.584 200.654 126.12 201.422 125.784C202.19 125.448 203.038 125.28 203.966 125.28C205.15 125.28 206.182 125.552 207.062 126.096C207.942 126.624 208.606 127.344 209.054 128.256L207.47 128.76C207.118 128.12 206.622 127.624 205.982 127.272C205.358 126.904 204.662 126.72 203.894 126.72C203.254 126.72 202.654 126.848 202.094 127.104C201.55 127.36 201.07 127.712 200.654 128.16C200.254 128.592 199.934 129.112 199.694 129.72C199.47 130.328 199.358 130.992 199.358 131.712C199.358 132.416 199.478 133.08 199.718 133.704C199.958 134.328 200.286 134.872 200.702 135.336C201.118 135.784 201.598 136.144 202.142 136.416C202.702 136.672 203.294 136.8 203.918 136.8C204.318 136.8 204.71 136.744 205.094 136.632C205.494 136.52 205.862 136.368 206.198 136.176C206.534 135.968 206.822 135.736 207.062 135.48C207.302 135.224 207.47 134.952 207.566 134.664L209.174 135.144C208.998 135.592 208.742 136.008 208.406 136.392C208.07 136.76 207.67 137.088 207.206 137.376C206.758 137.648 206.254 137.856 205.694 138C205.15 138.16 204.582 138.24 203.99 138.24C203.078 138.24 202.238 138.072 201.47 137.736C200.702 137.384 200.038 136.912 199.478 136.32C198.918 135.712 198.478 135.016 198.158 134.232C197.854 133.448 197.702 132.608 197.702 131.712Z" fill="white"/>
    <path d="M216.948 138.24C216.036 138.24 215.204 138.072 214.452 137.736C213.7 137.384 213.044 136.912 212.484 136.32C211.94 135.728 211.516 135.04 211.212 134.256C210.908 133.472 210.756 132.648 210.756 131.784C210.756 130.904 210.908 130.072 211.212 129.288C211.532 128.504 211.964 127.816 212.508 127.224C213.068 126.632 213.724 126.16 214.476 125.808C215.228 125.456 216.052 125.28 216.948 125.28C217.844 125.28 218.668 125.456 219.42 125.808C220.188 126.16 220.844 126.632 221.388 127.224C221.948 127.816 222.38 128.504 222.684 129.288C223.004 130.072 223.164 130.904 223.164 131.784C223.164 132.648 223.012 133.472 222.708 134.256C222.404 135.04 221.972 135.728 221.412 136.32C220.868 136.912 220.212 137.384 219.444 137.736C218.692 138.072 217.86 138.24 216.948 138.24ZM212.412 131.808C212.412 132.512 212.532 133.168 212.772 133.776C213.012 134.368 213.332 134.896 213.732 135.36C214.148 135.808 214.628 136.16 215.172 136.416C215.732 136.672 216.324 136.8 216.948 136.8C217.572 136.8 218.156 136.672 218.7 136.416C219.26 136.144 219.748 135.784 220.164 135.336C220.58 134.872 220.908 134.336 221.148 133.728C221.388 133.12 221.508 132.464 221.508 131.76C221.508 131.072 221.388 130.424 221.148 129.816C220.908 129.192 220.58 128.656 220.164 128.208C219.748 127.744 219.26 127.384 218.7 127.128C218.156 126.856 217.572 126.72 216.948 126.72C216.324 126.72 215.74 126.856 215.196 127.128C214.652 127.384 214.172 127.744 213.756 128.208C213.34 128.672 213.012 129.216 212.772 129.84C212.532 130.448 212.412 131.104 212.412 131.808Z" fill="white"/>
    <path d="M225.966 120.48H227.598V135.168C227.598 135.632 227.726 136 227.982 136.272C228.238 136.528 228.598 136.656 229.062 136.656C229.238 136.656 229.446 136.632 229.686 136.584C229.926 136.536 230.15 136.472 230.358 136.392L230.646 137.712C230.342 137.84 229.966 137.944 229.518 138.024C229.086 138.104 228.71 138.144 228.39 138.144C227.638 138.144 227.046 137.936 226.614 137.52C226.182 137.088 225.966 136.488 225.966 135.72V120.48Z" fill="white"/>
    <path d="M235.577 138.24C234.985 138.24 234.433 138.144 233.921 137.952C233.425 137.744 232.985 137.464 232.601 137.112C232.233 136.76 231.945 136.352 231.737 135.888C231.529 135.408 231.425 134.896 231.425 134.352C231.425 133.808 231.553 133.304 231.809 132.84C232.065 132.376 232.425 131.976 232.889 131.64C233.353 131.304 233.905 131.048 234.545 130.872C235.185 130.68 235.889 130.584 236.657 130.584C237.297 130.584 237.945 130.64 238.601 130.752C239.257 130.864 239.841 131.024 240.353 131.232V130.104C240.353 129 240.041 128.128 239.417 127.488C238.793 126.832 237.929 126.504 236.825 126.504C236.185 126.504 235.529 126.632 234.857 126.888C234.185 127.144 233.505 127.512 232.817 127.992L232.241 126.912C233.857 125.824 235.425 125.28 236.945 125.28C238.513 125.28 239.745 125.72 240.641 126.6C241.537 127.48 241.985 128.696 241.985 130.248V135.888C241.985 136.336 242.185 136.56 242.585 136.56V138C242.313 138.048 242.105 138.072 241.961 138.072C241.545 138.072 241.217 137.968 240.977 137.76C240.753 137.552 240.633 137.264 240.617 136.896L240.569 135.912C239.993 136.664 239.265 137.24 238.385 137.64C237.521 138.04 236.585 138.24 235.577 138.24ZM235.961 136.992C236.809 136.992 237.585 136.832 238.289 136.512C239.009 136.192 239.553 135.768 239.921 135.24C240.065 135.096 240.169 134.944 240.233 134.784C240.313 134.608 240.353 134.448 240.353 134.304V132.264C239.809 132.056 239.241 131.896 238.649 131.784C238.073 131.672 237.481 131.616 236.873 131.616C235.721 131.616 234.785 131.856 234.065 132.336C233.345 132.816 232.985 133.448 232.985 134.232C232.985 134.616 233.057 134.976 233.201 135.312C233.361 135.648 233.569 135.944 233.825 136.2C234.097 136.44 234.417 136.632 234.785 136.776C235.153 136.92 235.545 136.992 235.961 136.992Z" fill="white"/>
    <path d="M249.663 138.24C248.687 138.24 247.735 138.08 246.807 137.76C245.879 137.44 245.079 136.976 244.407 136.368L245.151 135.264C245.855 135.84 246.567 136.272 247.287 136.56C248.023 136.848 248.807 136.992 249.639 136.992C250.647 136.992 251.447 136.792 252.039 136.392C252.647 135.976 252.951 135.392 252.951 134.64C252.951 134.288 252.871 134 252.711 133.776C252.551 133.536 252.311 133.328 251.991 133.152C251.687 132.976 251.295 132.824 250.815 132.696C250.351 132.552 249.807 132.408 249.183 132.264C248.463 132.088 247.839 131.912 247.311 131.736C246.783 131.56 246.343 131.36 245.991 131.136C245.655 130.912 245.399 130.64 245.223 130.32C245.063 129.984 244.983 129.568 244.983 129.072C244.983 128.448 245.103 127.896 245.343 127.416C245.599 126.936 245.935 126.544 246.351 126.24C246.783 125.92 247.279 125.68 247.839 125.52C248.415 125.36 249.023 125.28 249.663 125.28C250.623 125.28 251.495 125.44 252.279 125.76C253.063 126.064 253.695 126.472 254.175 126.984L253.383 127.944C252.919 127.464 252.351 127.104 251.679 126.864C251.023 126.624 250.335 126.504 249.615 126.504C249.183 126.504 248.783 126.552 248.415 126.648C248.047 126.728 247.719 126.864 247.431 127.056C247.159 127.248 246.943 127.496 246.783 127.8C246.623 128.088 246.543 128.432 246.543 128.832C246.543 129.168 246.599 129.44 246.711 129.648C246.823 129.856 247.007 130.04 247.263 130.2C247.519 130.344 247.839 130.48 248.223 130.608C248.623 130.72 249.103 130.84 249.663 130.968C250.463 131.16 251.167 131.352 251.775 131.544C252.383 131.736 252.887 131.96 253.287 132.216C253.703 132.472 254.015 132.784 254.223 133.152C254.431 133.52 254.535 133.968 254.535 134.496C254.535 135.648 254.095 136.56 253.215 137.232C252.335 137.904 251.151 138.24 249.663 138.24Z" fill="white"/>
    <path d="M261.683 135.864C262.035 136.104 262.483 136.312 263.027 136.488C263.587 136.664 264.211 136.752 264.899 136.752C265.763 136.752 266.451 136.6 266.963 136.296C267.491 135.976 267.891 135.512 268.163 134.904C268.435 134.296 268.611 133.552 268.691 132.672C268.771 131.776 268.811 130.76 268.811 129.624V120.96H270.491V129.624C270.491 130.92 270.427 132.104 270.299 133.176C270.187 134.232 269.939 135.136 269.555 135.888C269.171 136.64 268.611 137.224 267.875 137.64C267.139 138.056 266.147 138.264 264.899 138.264C263.459 138.264 262.227 137.912 261.203 137.208L261.683 135.864Z" fill="white"/>
    <path d="M278.134 138.24C276.774 138.24 275.758 137.792 275.086 136.896C274.43 135.984 274.102 134.632 274.102 132.84V125.496H275.734V132.552C275.734 135.384 276.702 136.8 278.638 136.8C279.118 136.8 279.59 136.72 280.054 136.56C280.518 136.4 280.942 136.168 281.326 135.864C281.726 135.56 282.078 135.2 282.382 134.784C282.702 134.368 282.958 133.896 283.15 133.368V125.496H284.782V135.888C284.782 136.336 284.974 136.56 285.358 136.56V138C285.166 138.032 285.006 138.048 284.878 138.048C284.766 138.048 284.686 138.048 284.638 138.048C284.254 138.032 283.942 137.896 283.702 137.64C283.462 137.384 283.342 137.04 283.342 136.608V135.168C282.798 136.144 282.054 136.904 281.11 137.448C280.182 137.976 279.19 138.24 278.134 138.24Z" fill="white"/>
    <path d="M292.624 138.24C291.648 138.24 290.696 138.08 289.768 137.76C288.84 137.44 288.04 136.976 287.368 136.368L288.112 135.264C288.816 135.84 289.528 136.272 290.248 136.56C290.984 136.848 291.768 136.992 292.6 136.992C293.608 136.992 294.408 136.792 295 136.392C295.608 135.976 295.912 135.392 295.912 134.64C295.912 134.288 295.832 134 295.672 133.776C295.512 133.536 295.272 133.328 294.952 133.152C294.648 132.976 294.256 132.824 293.776 132.696C293.312 132.552 292.768 132.408 292.144 132.264C291.424 132.088 290.8 131.912 290.272 131.736C289.744 131.56 289.304 131.36 288.952 131.136C288.616 130.912 288.36 130.64 288.184 130.32C288.024 129.984 287.944 129.568 287.944 129.072C287.944 128.448 288.064 127.896 288.304 127.416C288.56 126.936 288.896 126.544 289.312 126.24C289.744 125.92 290.24 125.68 290.8 125.52C291.376 125.36 291.984 125.28 292.624 125.28C293.584 125.28 294.456 125.44 295.24 125.76C296.024 126.064 296.656 126.472 297.136 126.984L296.344 127.944C295.88 127.464 295.312 127.104 294.64 126.864C293.984 126.624 293.296 126.504 292.576 126.504C292.144 126.504 291.744 126.552 291.376 126.648C291.008 126.728 290.68 126.864 290.392 127.056C290.12 127.248 289.904 127.496 289.744 127.8C289.584 128.088 289.504 128.432 289.504 128.832C289.504 129.168 289.56 129.44 289.672 129.648C289.784 129.856 289.968 130.04 290.224 130.2C290.48 130.344 290.8 130.48 291.184 130.608C291.584 130.72 292.064 130.84 292.624 130.968C293.424 131.16 294.128 131.352 294.736 131.544C295.344 131.736 295.848 131.96 296.248 132.216C296.664 132.472 296.976 132.784 297.184 133.152C297.392 133.52 297.496 133.968 297.496 134.496C297.496 135.648 297.056 136.56 296.176 137.232C295.296 137.904 294.112 138.24 292.624 138.24Z" fill="white"/>
    <path d="M306.167 137.4C306.071 137.448 305.927 137.512 305.735 137.592C305.559 137.672 305.351 137.752 305.111 137.832C304.871 137.912 304.599 137.984 304.295 138.048C303.991 138.112 303.671 138.144 303.335 138.144C302.983 138.144 302.647 138.096 302.327 138C302.007 137.904 301.727 137.76 301.487 137.568C301.247 137.36 301.055 137.104 300.911 136.8C300.767 136.496 300.695 136.144 300.695 135.744V126.792H298.967V125.496H300.695V121.272H302.327V125.496H305.207V126.792H302.327V135.288C302.359 135.752 302.519 136.096 302.807 136.32C303.111 136.528 303.455 136.632 303.839 136.632C304.303 136.632 304.711 136.56 305.063 136.416C305.415 136.256 305.639 136.144 305.735 136.08L306.167 137.4Z" fill="white"/>
    <path d="M308.206 138V125.496H309.838V138H308.206ZM308.206 122.88V120.48H309.838V122.88H308.206Z" fill="white"/>
    <path d="M323.945 138H322.313V131.016C322.313 129.528 322.089 128.448 321.641 127.776C321.209 127.104 320.537 126.768 319.625 126.768C319.145 126.768 318.665 126.856 318.185 127.032C317.705 127.208 317.257 127.456 316.841 127.776C316.441 128.096 316.081 128.48 315.761 128.928C315.441 129.36 315.209 129.832 315.065 130.344V138H313.433V125.496H314.921V128.328C315.433 127.416 316.161 126.68 317.105 126.12C318.065 125.56 319.105 125.28 320.225 125.28C320.913 125.28 321.497 125.408 321.977 125.664C322.457 125.92 322.841 126.28 323.129 126.744C323.417 127.208 323.625 127.776 323.753 128.448C323.881 129.12 323.945 129.864 323.945 130.68V138Z" fill="white"/>
  </g>
  <defs>
    <linearGradient id="paint0_linear" x1="9.07113e-09" y1="3.62843e-09" x2="500" y2="200" gradientUnits="userSpaceOnUse">
      <stop stop-color="#219653"/>
      <stop offset="1" stop-color="#2F80ED"/>
    </linearGradient>
    <clipPath id="clip0">
      <rect width="500" height="200" fill="white"/>
    </clipPath>
  </defs>
</svg>
